<?xml version="1.0" encoding="UTF-8"?>
<svg id="Layer_2" data-name="Layer 2" xmlns="http://www.w3.org/2000/svg" viewBox="0 0 304 304">
  <defs>
    <style>
      .cls-1 {
        fill: #fff;
      }

      .cls-2 {
        font-family: FuturaPT-Bold, 'Futura PT';
        font-size: 34.46px;
        font-weight: 700;
      }

      .cls-2, .cls-3 {
        fill: #f7b694;
      }
    </style>
  </defs>
  <g id="Capa_1" data-name="Capa 1">
    <g>
      <circle class="cls-1" cx="152" cy="152" r="152"/>
      <text class="cls-2" transform="translate(42.62 214.36) rotate(54.9)"><tspan x="0" y="0">V</tspan></text>
      <text class="cls-2" transform="translate(57.98 235.11) rotate(46.18)"><tspan x="0" y="0">I</tspan></text>
      <text class="cls-2" transform="translate(66.34 243.95) rotate(39.44)"><tspan x="0" y="0">L</tspan></text>
      <text class="cls-2" transform="translate(80.19 255.19) rotate(31.32)"><tspan x="0" y="0">L</tspan></text>
      <text class="cls-2" transform="translate(95.76 264.87) rotate(21.05)"><tspan x="0" y="0">A</tspan></text>
      <text class="cls-2" transform="translate(120.36 273.58) rotate(12.82)"><tspan x="0" y="0"> </tspan></text>
      <text class="cls-2" transform="translate(129.75 276.19) rotate(4.63)"><tspan x="0" y="0">A</tspan></text>
      <text class="cls-2" transform="translate(156.2 277.79) rotate(-5.46)"><tspan x="0" y="0">L</tspan></text>
      <text class="cls-2" transform="translate(173.96 275.97) rotate(-13.62)"><tspan x="0" y="0">L</tspan></text>
      <text class="cls-2" transform="translate(191.34 271.66) rotate(-22)"><tspan x="0" y="0">E</tspan></text>
      <text class="cls-2" transform="translate(209.26 264.74) rotate(-33.25)"><tspan x="0" y="0">N</tspan></text>
      <text class="cls-2" transform="translate(234.42 247.63) rotate(-46.2)"><tspan x="0" y="0">D</tspan></text>
      <text class="cls-2" transform="translate(252.06 228.51) rotate(-56.41)"><tspan x="0" y="0">E</tspan></text>
      <text class="cls-2" transform="translate(50.28 137.33) rotate(-75.73)"><tspan x="0" y="0">R</tspan></text>
      <text class="cls-2" transform="translate(55.18 118.25) rotate(-65.98)"><tspan x="0" y="0">E</tspan></text>
      <text class="cls-2" transform="translate(60.5 104.5) rotate(-54.75)"><tspan x="0" y="0">N</tspan></text>
      <text class="cls-2" transform="translate(74.98 83.83) rotate(-41.69)"><tspan x="0" y="0">A</tspan></text>
      <text class="cls-2" transform="translate(90.98 69.47) rotate(-30.91)"><tspan x="0" y="0">C</tspan></text>
      <text class="cls-2" transform="translate(106.81 59.98) rotate(-21.52)"><tspan x="0" y="0">E</tspan></text>
      <text class="cls-2" transform="translate(121.37 54.43) rotate(-15.22)"><tspan x="0" y="0"> </tspan></text>
      <text class="cls-2" transform="translate(127.64 52.22) rotate(-7.97)"><tspan x="0" y="0">P</tspan></text>
      <text class="cls-2" transform="translate(143.55 49.43) rotate(1.96)"><tspan x="0" y="0">A</tspan></text>
      <text class="cls-2" transform="translate(165.69 49.96) rotate(14.14)"><tspan x="0" y="0">D</tspan></text>
      <text class="cls-2" transform="translate(186.88 55.44) rotate(24.46)"><tspan x="0" y="0">E</tspan></text>
      <text class="cls-2" transform="translate(200.78 61.66) rotate(32.79)"><tspan x="0" y="0">L</tspan></text>
      <text class="cls-2" transform="translate(213.29 69.9) rotate(38.87)"><tspan x="0" y="0"> </tspan></text>
      <text class="cls-2" transform="translate(218.76 73.71) rotate(45.95)"><tspan x="0" y="0">C</tspan></text>
      <text class="cls-2" transform="translate(231.61 87.02) rotate(55.09)"><tspan x="0" y="0">L</tspan></text>
      <text class="cls-2" transform="translate(239.61 97.38) rotate(64.77)"><tspan x="0" y="0">U</tspan></text>
      <text class="cls-2" transform="translate(249.28 117.78) rotate(76.46)"><tspan x="0" y="0">B</tspan></text>
      <g>
        <path class="cls-3" d="M123.36,152c0,15.79-6.39,30.07-16.72,40.41-3.56,3.56-7.59,6.65-12,9.18-11.57-13.31-18.56-30.71-18.56-49.75,0-13.74,3.64-26.63,10.02-37.74,2.41-4.2,5.22-8.15,8.36-11.8,4.47,2.54,8.57,5.67,12.18,9.28.83.83,1.62,1.68,2.39,2.55,8.92,10.08,14.33,23.33,14.33,37.86Z"/>
        <path class="cls-3" d="M189.89,217.56c-11.16,6.45-24.12,10.14-37.95,10.14-15.73,0-30.34-4.78-42.46-12.97,14.83-10.24,25.84-25.6,30.49-43.54h3.67s46.24,46.37,46.24,46.37Z"/>
        <path class="cls-3" d="M180.4,133.27c0,5.27-2.13,10.03-5.57,13.47-3.05,3.05-7.13,5.07-11.67,5.49l-20.75-.02v-.21c0-13.77-3.64-26.69-10.02-37.82l28.97.04c5.27,0,10.03,2.13,13.47,5.58,3.44,3.44,5.57,8.21,5.57,13.46Z"/>
        <path class="cls-3" d="M227.8,151.84c0,21.19-8.67,40.33-22.64,54.09l-35.46-35.49c7.18-1.6,13.59-5.22,18.6-10.24,6.89-6.89,11.15-16.41,11.15-26.94s-4.26-20.05-11.15-26.94c-6.89-6.89-16.41-11.15-26.94-11.15l-44.38-.02h-15.47c2.45-2.19,5.03-4.21,7.75-6.06,12.16-8.28,26.85-13.12,42.68-13.12,41.93,0,75.86,33.93,75.86,75.86Z"/>
      </g>
      <path class="cls-1" d="M169.69,170.44c7.18-1.6,13.59-5.22,18.6-10.24,6.89-6.89,11.15-16.41,11.15-26.94s-4.26-20.05-11.15-26.94c-6.89-6.89-16.41-11.15-26.94-11.15l-44.38-.02h-15.47c-2.5,2.22-4.86,4.61-7.05,7.15,4.47,2.54,8.57,5.67,12.18,9.28.83.83,1.62,1.68,2.39,2.55,8.92,10.08,14.33,23.33,14.33,37.86,0,15.79-6.39,30.07-16.72,40.41-3.56,3.56-7.59,6.65-12,9.18,4.35,5,9.34,9.43,14.84,13.15,14.83-10.24,25.84-25.6,30.49-43.54h3.67s46.24,46.37,46.24,46.37c5.58-3.23,10.71-7.14,15.27-11.63l-35.46-35.49ZM142.41,152.21v-.21c0-13.77-3.64-26.69-10.02-37.82l28.97.04c5.27,0,10.03,2.13,13.47,5.58,3.44,3.44,5.57,8.21,5.57,13.46s-2.13,10.03-5.57,13.47c-3.05,3.05-7.13,5.07-11.67,5.49l-20.75-.02Z"/>
    </g>
  </g>
</svg>