<?xml version="1.0" encoding="UTF-8"?>
<svg id="Layer_2" data-name="Layer 2" xmlns="http://www.w3.org/2000/svg" viewBox="0 0 645.28 750.33">
  <defs>
    <style>
      .cls-1 {
        fill: #d6d6e3;
      }

      .cls-2 {
        fill: #fff;
      }

      .cls-3 {
        fill: #ffb894;
      }

      .cls-4 {
        fill: #090814;
      }

      .cls-5 {
        fill: #b3b3b3;
      }
    </style>
  </defs>
  <g id="Layer_1-2" data-name="Layer 1">
    <path class="cls-5" d="M38.61,647.76s67.1,48.37,87.06,48.37l14.26-5.7,16.39.97,3.81,11.63,25.44,4.51-8.56,8.56,28.52,7.13,17.11-11.41,5.7,7.13,19.97-7.13,4.78,11.41,23.75-8.56,15.69,5.7s2.85,17.11,17.11,18.54,34.23,11.41,34.23,11.41l44.52-19.04,5.4-9.48,15.69,4.28,41.36-22.82s-.92.13-11.87-4.22-12.38-10.05-12.38-10.05l-7.76,2.4s-12.23-3.39-3.66-17.87c8.57-14.48,1.83-12.47,1.83-12.47l-13.23,3.69-7.13-11.41s-14.26,4.28-17.11,5.7,4.28-7.13,4.28-7.13l-5.7-2.85,1.43-7.13s-4.28-2.85,1.43-8.56-4.28-11.41-4.28-11.41c0,0-26.1,8.41-16.62-5.78,9.49-14.19,1.21-19.89,1.21-19.89l-63.3-19.97-6.87,9.98s-22.59-6.12-15.57,12.63c0,0-15.55,1.28-9.97,10.01,0,0-18.67-2.35-14.39,8.9l-15.11-4.2s-11.54-3.45-2.49-4.69-3.32-4.81-3.32-4.81c0,0,4.05-15.69-7.48-11.05s-21.27,11.05-21.27,11.05l-162.9,43.63h0Z"/>
    <path class="cls-1" d="M42.89,642.06s67.1,48.37,87.06,48.37l14.26-5.7,16.39.97,3.81,11.63,25.44,4.51-8.56,8.56,28.52,7.13,17.11-11.41,5.7,7.13,19.97-7.13,4.78,11.41,23.75-8.56,15.69,5.7s2.85,17.11,17.11,18.54,34.23,11.41,34.23,11.41l44.52-19.04,5.4-9.48,15.69,4.28,41.36-22.82s-.92.13-11.87-4.22-12.38-10.05-12.38-10.05l-7.76,2.4s-12.23-3.39-3.66-17.87c8.57-14.48,1.83-12.47,1.83-12.47l-13.23,3.69-7.13-11.41s-14.26,4.28-17.11,5.7c-2.85,1.43,4.28-7.13,4.28-7.13l-5.7-2.85,1.43-7.13s-4.28-2.85,1.43-8.56-4.28-11.41-4.28-11.41c0,0-26.1,8.41-16.62-5.78,9.49-14.19,1.21-19.89,1.21-19.89l-63.3-19.97-6.87,9.98s-22.59-6.12-15.57,12.63c0,0-15.55,1.28-9.97,10.01,0,0-18.67-2.35-14.39,8.9l-15.11-4.2s-11.54-3.45-2.49-4.69c9.05-1.25-3.32-4.81-3.32-4.81,0,0,4.05-15.69-7.48-11.05s-21.27,11.05-21.27,11.05l-162.9,43.63h0Z"/>
    <path class="cls-3" d="M522.17,480.77s54.2-12.84,48.49-65.61l9.98,2.85v-19.9s19.85,32.73,19.91,45.57,8.62,105.54-94.07,88.43l15.69-51.34h0Z"/>
    <path class="cls-3" d="M229.79,38.63l-13.55.71h-21.56s-15.4-3.57-20.81-.71l7.43,4.28s-12.84,1.43-17.11,7.13h11.94s-16.21,4.28-19.07,15.69-31.38,37.08-31.38,37.08c0,0-58.48,47.07,12.84,111.25,0,0,8.56,27.1,5.7,31.38s35.66,9.98,39.93-19.97c4.28-29.95,12.84-92.71,12.84-99.84s18.54-51.34,18.54-51.34"/>
    <path class="cls-3" d="M403.79,38.63l13.55.71h21.56s15.4-3.57,20.81-.71l-7.43,4.28s12.84,1.43,17.11,7.13h-11.94s16.21,4.28,19.07,15.69,31.38,37.08,31.38,37.08c0,0,58.48,47.07-12.84,111.25,0,0-8.56,27.1-5.7,31.38s-35.66,9.98-39.93-19.97c-4.28-29.95-12.84-92.71-12.84-99.84s-18.54-51.34-18.54-51.34"/>
    <path class="cls-3" d="M518.61,531.4c-2.85,14.26-15.69,24.25-15.69,24.25-5.7,35.66-29.95,19.97-29.95,19.97-1.43,5.7-28.52,2.85-28.52,2.85l-4.28-5.63v17.04c0,12.84-17.11,8.56-17.11,8.56-4.28,12.84-30.36,5.7-30.36,5.7-10.38,8.56-29.54,0-29.54,0-25.67-1.43-28.52-22.82-28.52-22.82l4.28-37.08-25.66.54c-28.52,24.77-57.78,2.55-57.78,2.55,0,0-4.99,25.43-7.84,38.27-2.85,12.84-41.76,9.24-41.76,9.24-8.96,9.24-27.77-1.6-27.77-1.6-15.35,6.2-24.6-7.64-24.6-7.64-21.39-19.97,18.01-51.66,18.01-51.66v-73.96c-16.22-65.74,6.95-186.98,6.95-186.98,1.91-5.62,5.42-9.77,9.4-12.81,9.31-7.17,21.21-8.33,21.21-8.33,0,0,194.03-17.11,222.55-14.26,5.39.54,9.71,4.08,13.16,9.47,14.88,23.15,13.93,80.38,13.93,80.38,28.52,12.84,35.66,75.59,35.66,75.59,65.61,22.82,27.1,114.1,24.25,128.36h0Z"/>
    <path class="cls-3" d="M408.78,32.21s-101.26-77.02-192.54,7.13c0,0-63.47,157.6-39.22,194.68,24.25,37.08,95.88,68.58,95.88,68.58,0,0,46.16,10.1,89.24,0s90.14-78.56,90.14-78.56c0,0,1.43-179.71-43.5-191.83h0Z"/>
    <path class="cls-4" d="M347.62,90.55c6.37,13.7,18.96,24.14,33.55,28,2.66.7,3.8-3.42,1.14-4.13-13.61-3.6-25.06-13.28-30.99-26.03-1.16-2.49-4.85-.32-3.69,2.16h0Z"/>
    <path class="cls-4" d="M271.89,90.05c-2.91,7.47-7.58,14.18-13.47,19.6-2.88,2.65-6.08,5.02-9.52,6.9-3.65,1.98-8.32,3.61-12.24,1.47-2.42-1.32-4.58,2.38-2.16,3.69,8.85,4.82,19.12-2.23,25.7-7.92,7.06-6.11,12.44-13.92,15.82-22.6,1-2.57-3.14-3.68-4.13-1.14h0Z"/>
    <circle class="cls-2" cx="382.4" cy="155.58" r="25.67"/>
    <circle class="cls-4" cx="379.55" cy="154.15" r="19.97"/>
    <circle class="cls-2" cx="384.54" cy="143.46" r="4.28"/>
    <circle class="cls-2" cx="255.46" cy="157.01" r="25.67"/>
    <circle class="cls-4" cx="252.61" cy="155.58" r="19.97"/>
    <circle class="cls-2" cx="257.6" cy="144.88" r="4.28"/>
    <path class="cls-4" d="M313.23,251.85s-45.64-14.26-34.23-41.36,47.07-17.11,47.07-17.11c0,0,30.66,4.99,21.55,28.34-6.58,16.59-17.28,24.43-34.39,30.14Z"/>
    <path class="cls-4" d="M255.62,295.54l-.32-2.83c.14-.02,13.92-1.77,26.2-15.42,11.1-12.33,25.61-13.58,30.31-13.63v-11.8s2.84,0,2.84,0v14.76s-1.5-.09-1.5-.09c-.17-.01-17.33-.88-29.53,12.67-13.05,14.5-27.39,16.28-28,16.34h0Z"/>
    <path class="cls-4" d="M379.12,297.06c-1.04-.32-25.46-8.02-31.08-19.01-4.14-8.08-26.58-11.06-34.88-11.53l.16-2.85c1.28.07,31.53,1.9,37.26,13.08,5.09,9.93,29.15,17.51,29.39,17.58l-.85,2.72h0Z"/>
    <path class="cls-4" d="M256.75,547.94l-2.57-1.24c27.86-57.58.31-109.77.03-110.28l2.51-1.36c.29.53,28.54,53.96.03,112.89h0Z"/>
    <path class="cls-4" d="M337.47,544.32c-2.13-36.15,12.01-100.3,12.15-100.94l2.79.62c-.14.64-14.2,64.41-12.09,100.16l-2.85.17Z"/>
    <path class="cls-4" d="M438.21,574.18l-11.41-19.97c-11.63-20.36,17.24-86.88,18.47-89.71l2.61,1.14c-.07.17-7.53,17.29-13.5,36.6-7.81,25.26-9.57,42.74-5.11,50.55l11.41,19.97-2.48,1.42h0Z"/>
    <path class="cls-4" d="M474.36,575.89l-2.8-.56c3.47-17.34,1.35-30.73,1.33-30.87l2.81-.46c.09.56,2.23,14.01-1.35,31.89Z"/>
    <path class="cls-4" d="M443.06,578.83c-3.62-13.76,1.91-34.11,2.14-34.97l2.75.76c-.06.2-5.56,20.47-2.14,33.49l-2.76.73h0Z"/>
    <path class="cls-4" d="M364.53,604.47l-2.77-.66c3.47-14.59,2.12-37.15,2.1-37.38l2.85-.18c.06.94,1.4,23.2-2.18,38.21h0Z"/>
    <path class="cls-4" d="M394.09,604.4l-2.81-.52c1.69-9.02,1.1-32.98,1.1-33.22l2.85-.07c.03,1,.6,24.5-1.14,33.81Z"/>
    <path class="cls-4" d="M424.47,598.51l-2.85-.17c.69-11.71-3.47-24.3-3.51-24.42l2.7-.91c.18.53,4.37,13.24,3.65,25.5h0Z"/>
    <path class="cls-4" d="M204.44,594.95c-1.13-13.15,9.9-33.43,10.37-34.29l2.5,1.37c-.11.2-11.09,20.39-10.03,32.68l-2.84.25Z"/>
    <path class="cls-4" d="M176.68,593.45c-1.84-11.96,8.98-31.94,9.44-32.78l2.5,1.37c-.11.2-10.82,19.98-9.13,30.98l-2.82.43h0Z"/>
    <path class="cls-4" d="M157.76,591.87c-3.22-1.59-3.19-7.12.11-17.4,2.23-6.95,5.21-13.63,5.24-13.7l2.6,1.16c-5.32,11.89-9.38,26.06-6.7,27.38l-1.26,2.56Z"/>
    <path class="cls-5" d="M52.95,588.8s12.9,13.19,32.83,12.48c0,0-8.59,17.83-44.25,22.11,0,0-15.69-8.56-25.67-8.56s-17.09-12.84-15.67-13.55,21.38,2.14,21.38,2.14c0,0,31.39-14.62,31.39-14.62Z"/>
    <path class="cls-1" d="M52.95,585.95s12.9,13.19,32.83,12.48c0,0-8.59,17.83-44.25,22.11,0,0-15.69-8.56-25.67-8.56s-17.09-12.84-15.67-13.55,21.38,2.14,21.38,2.14c0,0,31.39-14.62,31.39-14.62Z"/>
    <polygon class="cls-5" points="125.67 636.23 210.93 607.94 303.95 640.5 218.38 676.16 125.67 636.23"/>
    <polygon class="cls-5" points="289.59 603.24 294.58 598.43 358.15 620.54 355.3 624.82 289.59 603.24"/>
    <polygon class="cls-5" points="261.8 611.62 268.14 607.94 373.53 642.05 373.53 645.8 261.8 611.62"/>
    <polygon class="cls-5" points="311.09 649.06 315.77 645.8 399.51 673.31 393.91 677.79 311.09 649.06"/>
    <polygon class="cls-5" points="286.68 661.79 289.59 657.62 373.53 687.35 369.56 691.85 286.68 661.79"/>
    <polygon class="cls-5" points="266.87 670.46 268.14 666.57 351.02 697.32 346.74 698.98 266.87 670.46"/>
    <polygon class="cls-5" points="255.46 681.12 261.8 676.16 303.95 694.83 301.64 698.98 255.46 681.12"/>
    <polygon class="cls-5" points="109.99 647.64 113.82 645.8 189.45 674.73 185.29 676.16 109.99 647.64"/>
    <polygon class="cls-5" points="92.87 651.91 101.43 647.64 142.79 669.03 138.51 671.88 92.87 651.91"/>
    <path class="cls-5" d="M429.72,609.84l2.59,17.83-4.91,12.2,12.89,5.82,10.57,14.13v7.69l26.39,6.44s14.98,20.76,24.96,17.91c9.98-2.85,88.35-59.28,88.35-59.28l-145.02-28.44s-16.98-3.57-15.81,5.7h0Z"/>
    <path class="cls-1" d="M425.45,604.14l2.59,17.83-4.91,12.2,12.89,5.82,10.57,14.13v7.69l26.39,6.44s14.98,20.76,24.96,17.91,88.35-59.28,88.35-59.28l-145.02-28.44s-16.98-3.57-15.81,5.7h0Z"/>
    <polygon class="cls-5" points="438.35 626.87 443.27 621.7 512.31 642.05 509.82 645.8 438.35 626.87"/>
    <polygon class="cls-5" points="455.14 648.29 457.05 642.08 490.79 654.77 489.04 660.98 455.14 648.29"/>
    <path class="cls-5" d="M597.9,561.75s-14.62,20.28-37.33,10.3c0,0-8.29,5.7-11.22,7.13s-22.02,2.14-22.02,2.14l27.01,9.63,16.33,9.63,38.51-5.7s8.56-7.13,17.11-7.13,16.14-15.69,16.14-15.69c0,0-24.57-1.43-25.35-4.99s-11.91,4.37-19.18-5.3h0Z"/>
    <path class="cls-5" d="M594.64,688.48c1.7,9.07,38.23-8.1,38.23-8.1l-15.37-8.1-6.9-1.82h-10.14s-8.56-7.34-17.04-2.96c0,0,9.52,11.91,11.22,20.98Z"/>
    <path class="cls-1" d="M600.75,556.04s-14.62,20.28-37.33,10.3c0,0-8.29,5.7-11.22,7.13s-22.02,2.14-22.02,2.14l27.01,9.63,16.33,9.63,38.51-5.7s8.56-7.13,17.11-7.13,16.14-15.69,16.14-15.69c0,0-24.57-1.43-25.35-4.99s-11.91,4.37-19.18-5.3h0Z"/>
    <path class="cls-1" d="M597.49,682.78c1.7,9.07,38.23-8.1,38.23-8.1l-15.37-8.1-6.9-1.82h-10.14s-8.56-7.34-17.04-2.96c0,0,9.52,11.91,11.22,20.98Z"/>
    <path class="cls-2" d="M129.47,637.09s64.29-7.1,76-2.48l4.11,36.99-80.11-34.51h0Z"/>
    <ellipse class="cls-2" cx="235.73" cy="638.52" rx="11.41" ry="4.99"/>
  </g>
</svg>